<?xml version="1.0" standalone="no"?>
<!DOCTYPE svg PUBLIC "-//W3C//DTD SVG 20010904//EN"
 "http://www.w3.org/TR/2001/REC-SVG-20010904/DTD/svg10.dtd">
<svg version="1.0" xmlns="http://www.w3.org/2000/svg"
 width="667.000000pt" height="667.000000pt" viewBox="0 0 667.000000 667.000000"
 preserveAspectRatio="xMidYMid meet">
<metadata>
Created by potrace 1.14, written by Peter Selinger 2001-2017
</metadata>
<g transform="translate(0.000000,667.000000) scale(0.100000,-0.100000)"
fill="#000000" stroke="none">
<path d="M3225 5698 c-342 -38 -784 -251 -1005 -484 -232 -245 -440 -674 -516
-1068 l-18 -89 -132 6 c-99 5 -134 4 -142 -6 -14 -18 -52 -158 -52 -194 0 -18
14 -54 31 -82 37 -58 39 -92 18 -290 -21 -204 -5 -344 51 -452 18 -32 18 -54
3 -99 -2 -8 -7 -88 -10 -178 -11 -362 45 -591 216 -885 199 -342 342 -521 496
-623 115 -76 638 -214 809 -214 313 1 872 210 1191 445 154 114 391 379 464
518 14 27 31 51 38 54 7 3 29 -2 48 -11 63 -30 134 4 207 97 31 41 31 42 3 17
-15 -14 -36 -33 -46 -42 -25 -24 -94 -58 -118 -58 -11 0 -31 10 -45 23 l-26
22 35 73 c19 41 35 78 35 82 0 5 25 46 56 91 30 45 79 132 108 193 63 132 102
173 198 205 36 12 72 21 79 19 10 -2 15 12 17 55 l3 57 -37 0 c-58 0 -121 -37
-211 -123 -80 -77 -81 -78 -77 -45 14 90 66 264 84 278 22 17 86 213 125 380
55 240 81 525 72 805 -11 338 -71 523 -248 763 -94 127 -277 309 -413 410
-265 197 -620 321 -1000 352 -145 11 -177 11 -291 -2z m-221 -233 c115 -227
362 -347 712 -348 153 0 219 13 424 79 255 83 312 74 458 -74 199 -202 302
-491 302 -844 0 -92 -23 -348 -50 -553 -8 -65 -36 -136 -88 -227 -17 -32 -32
-62 -32 -68 0 -19 -34 -80 -44 -80 -6 0 -24 7 -41 16 -16 9 -71 31 -120 50
-75 29 -93 40 -104 65 -21 48 -132 153 -192 182 -89 44 -201 60 -374 54 -163
-6 -256 -22 -341 -61 -51 -24 -69 -49 -41 -59 6 -2 -62 -3 -153 -1 -141 3
-182 8 -282 33 -132 33 -232 83 -272 136 -65 85 -318 239 -461 280 -71 21
-163 15 -227 -13 -43 -20 -44 -20 -146 2 -57 12 -103 24 -103 26 -2 17 15 140
32 224 10 54 19 109 19 122 0 22 54 180 85 249 63 141 85 182 142 269 109 167
206 277 338 383 163 131 395 246 484 240 32 -2 37 -7 75 -82z m-994 -1620
c170 -40 247 -63 380 -116 114 -45 200 -89 174 -89 -5 0 -14 4 -20 9 -12 12
-146 65 -214 85 -138 40 -194 48 -290 42 -124 -8 -191 -32 -265 -98 -20 -17
-37 -29 -39 -27 -2 2 5 36 15 74 29 108 27 115 -23 116 l-43 1 40 19 c50 25
132 20 285 -16z m-354 -107 c-4 -29 -19 -87 -33 -128 -14 -41 -31 -100 -38
-130 -15 -65 -19 -33 -5 37 5 26 17 84 26 128 26 131 64 200 50 93z m438 -152
c-48 -51 -84 -136 -84 -200 0 -124 83 -238 196 -269 33 -9 71 -17 85 -16 15 1
9 4 -17 9 -80 16 -113 36 -134 82 -11 24 -20 51 -20 61 0 16 6 14 42 -12 62
-46 107 -56 173 -36 43 12 63 26 99 67 l45 51 6 -36 c6 -29 2 -46 -20 -84
l-26 -48 31 30 c18 17 40 46 51 67 19 38 41 147 32 162 -3 5 0 7 8 4 8 -2 29
-30 48 -61 19 -32 35 -56 37 -54 2 1 0 18 -5 37 -4 19 -5 42 -4 50 4 16 52 55
59 48 5 -6 -24 -106 -39 -133 -6 -11 -12 -29 -14 -40 -10 -59 -169 -292 -237
-346 -85 -69 -145 -92 -240 -91 -141 1 -364 81 -466 167 -51 43 -102 113 -118
165 -13 40 -19 147 -9 157 4 3 7 -6 7 -21 0 -15 4 -25 9 -22 12 8 28 -13 36
-47 11 -42 25 -21 70 102 38 102 108 220 136 230 12 4 12 2 0 -12 -7 -10 -9
-17 -3 -17 6 0 8 -15 5 -38 -4 -26 -1 -42 10 -50 13 -11 19 -5 43 38 41 75
153 148 230 150 17 0 14 -7 -22 -44z m155 -42 c26 -33 26 -49 1 -74 -27 -27
-56 -25 -86 5 -19 19 -23 31 -18 48 16 51 71 62 103 21z m-634 -117 c-9 -45
-21 -86 -26 -91 -14 -15 -11 7 13 108 26 111 36 98 13 -17z m2297 -32 c82 -14
199 -38 261 -54 315 -82 348 -124 297 -391 -70 -368 -183 -519 -413 -550 -161
-23 -417 27 -542 105 -128 80 -193 223 -213 470 -5 61 -6 119 -1 130 7 19 8
19 8 1 1 -18 4 -17 29 7 l29 27 -5 -29 c-2 -16 1 -31 6 -35 6 -4 8 -22 5 -41
-7 -42 1 -45 21 -7 24 46 85 115 129 145 55 37 62 34 28 -13 -60 -83 -67 -205
-16 -299 31 -56 59 -85 93 -96 22 -6 22 -6 -3 20 -13 15 -27 44 -31 64 -3 20
-8 43 -10 53 -8 29 11 28 31 -3 11 -16 38 -42 59 -57 34 -23 49 -27 112 -27
64 0 77 3 115 30 23 17 53 50 66 74 l23 44 14 -35 c17 -39 7 -96 -19 -118 -8
-7 -15 -17 -15 -23 0 -17 41 26 69 73 23 40 26 56 26 135 0 97 -12 133 -64
188 l-26 28 28 -10 c121 -46 247 -177 276 -289 19 -70 35 -41 28 49 -4 44 -4
79 -1 79 3 0 22 -9 44 -20 22 -11 53 -20 70 -20 28 0 30 2 24 28 -13 52 -64
142 -92 159 -15 10 -33 23 -40 30 -8 7 -44 27 -80 44 -37 17 -79 37 -93 44
-14 8 -45 17 -68 21 -23 4 -44 10 -46 15 -3 4 -27 11 -53 15 -26 3 -70 12 -99
20 -85 21 -360 39 -417 26 -26 -5 -44 -6 -39 -1 35 35 271 32 495 -6z m-836
-199 c26 -27 34 -47 42 -102 33 -226 47 -306 64 -369 22 -83 28 -98 81 -198
28 -53 98 -146 131 -175 71 -62 165 -105 386 -176 63 -21 130 -44 149 -52 36
-16 171 -35 256 -37 80 -2 144 21 192 69 34 34 40 38 33 18 -12 -32 -34 -54
-150 -154 -150 -130 -303 -190 -484 -190 -117 0 -156 19 -269 129 -54 53 -123
114 -155 135 -77 52 -225 121 -292 136 -98 21 -97 21 -59 37 48 20 69 41 95
98 26 55 29 91 13 148 -12 45 -30 44 -42 -2 -15 -60 -70 -131 -119 -157 -35
-18 -141 -18 -204 1 -68 20 -140 68 -160 107 -29 54 -25 136 9 187 34 51 30
65 -5 19 -36 -48 -58 -112 -58 -168 0 -57 13 -93 49 -134 l26 -29 -30 7 c-65
15 -188 18 -248 7 -76 -15 -247 -69 -266 -84 -8 -7 -46 -12 -90 -11 -63 1 -84
5 -121 27 -117 69 -247 234 -264 337 -3 19 -10 62 -16 95 -13 81 -13 85 11 48
24 -38 75 -69 126 -79 21 -4 43 -10 48 -14 6 -4 44 -12 85 -18 41 -7 120 -19
175 -27 146 -22 259 -23 325 -1 124 41 294 192 413 366 32 47 81 118 108 158
28 40 60 77 72 82 12 6 42 8 67 5 34 -4 52 -13 76 -39z m665 -27 c47 -47 -3
-126 -64 -98 -50 23 -53 79 -6 105 33 18 46 17 70 -7z m464 -921 c-31 -16 -56
-20 -124 -19 -46 0 -86 3 -89 6 -3 3 24 5 59 5 35 0 84 7 109 14 69 22 92 19
45 -6z m-1505 -158 c57 -21 103 -30 145 -30 69 0 132 -17 201 -55 27 -14 40
-23 29 -19 -11 4 -92 11 -180 14 -148 6 -166 9 -243 38 -45 17 -95 38 -112 47
-20 10 -56 15 -117 14 -93 -1 -150 -11 -123 -22 65 -28 343 -117 375 -121 41
-5 74 -12 103 -20 9 -3 37 -8 62 -11 24 -4 47 -8 50 -10 4 -2 40 -4 81 -5 41
-1 103 -9 138 -17 37 -9 89 -13 123 -11 59 4 61 3 80 -26 15 -24 18 -42 14
-78 -16 -147 -122 -248 -262 -248 -77 0 -140 37 -184 109 -23 37 -41 53 -78
69 -82 34 -120 43 -184 44 -53 1 -74 -4 -137 -35 -107 -53 -171 -48 -249 18
-48 40 -72 94 -72 159 0 94 52 198 110 219 8 3 89 6 180 6 158 1 168 -1 250
-29z m519 -156 c13 -12 -8 -10 -29 2 l-25 15 25 -7 c14 -3 27 -8 29 -10z"/>
<path d="M2570 1830 c33 -19 176 -50 224 -49 28 1 40 4 26 6 -14 2 -71 15
-128 29 -111 26 -149 30 -122 14z"/>
<path d="M5013 2989 c-18 -5 -33 -16 -33 -24 0 -21 10 -19 45 10 33 27 33 27
-12 14z"/>
<path d="M5201 2734 c0 -11 3 -14 6 -6 3 7 2 16 -1 19 -3 4 -6 -2 -5 -13z"/>
</g>
</svg>
